#N canvas 591 22 825 783 10;
#X obj 45 17 adc~;
#X obj 44 57 env~ 256 128;
#X floatatom 46 100 5 0 0 0 - - -;
#X obj 85 101 hsl 128 15 0 127 0 0 empty empty empty -2 -8 0 10 -262144
-1 -1 5525 1;
#X obj 202 150 moses;
#X obj 253 93 hsl 128 15 0 80 0 0 empty empty Threshold -2 -8 0 10
-204786 -1 -1 11200 1;
#X floatatom 250 123 5 0 0 0 - - -;
#X floatatom 49 187 5 0 0 0 - - -;
#X obj 49 225 once;
#X msg 116 211 bang;
#X obj 116 278 print rms;
#X obj 52 302 t b b;
#X obj 50 345 timer;
#X obj 113 377 print delay;
#X obj 51 565 moses;
#X obj 115 507 hsl 128 15 0 30 0 0 empty empty 1_Threshold -2 -8 0
10 -232576 -1 -1 8200 1;
#X floatatom 112 537 5 0 0 0 - - -;
#X obj -86 693 sendOSC;
#X msg -246 660 connect localhost 8000;
#X obj 99 629 moses;
#X obj 163 572 hsl 128 15 0 100 0 0 empty empty 0_Threshold -2 -8 0
10 -232576 -1 -1 6600 1;
#X floatatom 160 601 5 0 0 0 - - -;
#X obj 107 763 sendOSC;
#X msg 176 730 connect localhost 8000;
#X obj 8 624 print 1;
#X obj 26 668 print 0;
#X msg 106 715 send /0;
#X msg -86 657 send /1;
#X obj 117 239 delay 1;
#X obj 51 475 moses;
#X obj 115 417 hsl 128 15 0 10 0 0 empty empty notch_filter -2 -8 0
10 -204786 -1 -1 4000 1;
#X floatatom 112 447 5 0 0 0 - - -;
#X connect 0 0 1 0;
#X connect 1 0 2 0;
#X connect 1 0 3 0;
#X connect 3 0 4 0;
#X connect 4 1 7 0;
#X connect 5 0 6 0;
#X connect 6 0 4 1;
#X connect 7 0 8 0;
#X connect 8 0 9 0;
#X connect 8 0 11 0;
#X connect 9 0 28 0;
#X connect 11 0 12 0;
#X connect 11 1 12 1;
#X connect 12 0 13 0;
#X connect 12 0 29 0;
#X connect 14 0 27 0;
#X connect 14 0 24 0;
#X connect 14 1 19 0;
#X connect 15 0 16 0;
#X connect 16 0 14 1;
#X connect 18 0 17 0;
#X connect 19 0 26 0;
#X connect 19 0 25 0;
#X connect 20 0 21 0;
#X connect 21 0 19 1;
#X connect 23 0 22 0;
#X connect 26 0 22 0;
#X connect 27 0 17 0;
#X connect 28 0 8 1;
#X connect 29 1 14 0;
#X connect 30 0 31 0;
#X connect 31 0 29 1;
