#N canvas 591 22 825 783 10;
#X obj 45 17 adc~;
#X obj 44 57 env~ 256 128;
#X floatatom 46 100 5 0 0 0 - - -;
#X obj 85 101 hsl 128 15 0 127 0 0 empty empty empty -2 -8 0 10 -262144
-1 -1 7214 1;
#X obj 202 150 moses;
#X floatatom 49 187 5 0 0 0 - - -;
#X obj 49 225 once;
#X msg 116 211 bang;
#X obj 52 302 t b b;
#X obj 50 345 timer;
#X obj 117 239 delay 1;
#X obj 35 405 py barcode readBarcode;
#X floatatom 248 72 5 0 0 0 - - -;
#X connect 0 0 1 0;
#X connect 1 0 2 0;
#X connect 1 0 3 0;
#X connect 3 0 4 0;
#X connect 4 1 5 0;
#X connect 5 0 6 0;
#X connect 6 0 7 0;
#X connect 6 0 8 0;
#X connect 7 0 10 0;
#X connect 8 0 9 0;
#X connect 8 1 9 1;
#X connect 9 0 11 1;
#X connect 10 0 6 1;
#X connect 12 0 4 1;
